<svg width="224" height="161" viewBox="0 0 224 161" fill="none" xmlns="http://www.w3.org/2000/svg">
<path d="M75.4996 137.682L93.5003 157.441C93.5003 157.441 98.7925 159.499 111.407 160.109C111.407 160.109 128.345 159.272 130.658 158.215L149.501 138.43V122.893L168.583 103.184V91.3786H189.085L216.809 62.1294H168.872V52.4888C168.872 52.4888 205.452 50.8526 217.903 33.4088C217.903 33.4088 225.282 25.505 223.805 0C223.805 0 214.565 15.9335 191.719 20.5588C191.719 20.5588 164.51 23.3843 134.222 16.9593C134.222 16.9593 114.455 13.3597 88.0197 17.2173C88.0197 17.2173 72.621 19.7847 62.0933 20.8168C62.0933 20.8168 35.7836 24.2841 20.7683 16.1915C20.7683 16.1915 4.33888 8.60863 1.77453 0C1.77453 0 -3.10277 10.9244 3.3144 26.5999C3.3144 26.5999 7.80829 37.6502 16.6641 42.9173C16.6641 42.9173 23.0813 47.5426 31.8114 49.3423C31.8114 49.3423 37.9708 51.2679 46.8266 52.042L56.1978 52.4258V61.8085H8.19797L35.4065 91.108H56.4555V103.19L75.707 122.591L75.4493 137.115L75.5122 137.694L75.4996 137.682Z" fill="#EC1C25"/>
<path d="M8.69525 18.3688C8.69525 18.3688 11.0082 36.681 34.8793 42.6529C34.8793 42.6529 50.0894 45.3526 63.5648 44.5786V69.4417H25.8286L38.3424 82.7448H63.5648V99.5153L83.0111 118.985V134.403L93.4068 146.158V98.5462L103.419 151.362C103.419 151.362 109.39 154.446 121.326 151.362L131.338 98.5462V145.768L141.928 134.976V119.168L161.375 99.6977V83.3111L185.824 83.5062L199.494 69.8192L161.57 69.4354V44.761C167.05 44.8303 171.745 44.5471 175.447 44.1947C182.449 43.5276 187.2 42.4956 191.11 41.6461C193.297 41.1678 195.245 40.6896 197.615 39.7456C198.639 39.3366 201.267 38.2291 204.353 36.1713C206.421 34.7869 208.997 33.0752 211.493 29.9477C213.818 27.0341 214.861 24.4225 215.081 23.8562C215.924 21.6788 216.276 19.7469 216.426 18.3625C216.426 18.3625 208.149 26.2663 194.479 27.8081C194.479 27.8081 172.336 30.3126 150.778 26.6502C150.778 26.6502 137.686 24.7246 128.635 23.9506L112.558 108.759L96.4803 23.9506C96.4803 23.9506 80.3085 27.978 52.968 28.9408C52.968 28.9408 27.9404 31.8544 8.68896 18.3625L8.69525 18.3688Z" fill="white"/>
</svg>
