<svg width="820" height="261" viewBox="0 0 820 261" fill="none" xmlns="http://www.w3.org/2000/svg">
<path d="M62.4386 106.375V156.453H11.7397V23.4916H162.636V57.2847H62.4386V73.3746H119.527V106.361H62.4386V106.375Z" fill="#050707"/>
<path d="M283.387 156.449V120.236C283.387 114.201 280.986 111.183 271.009 111.183H225.706V156.435H175.407V23.4744H286.975C324.496 23.4744 332.679 31.3177 332.679 55.2509V75.1652C332.679 86.8329 326.897 93.2716 318.507 95.6774C326.29 97.4853 333.479 103.924 333.479 114.785V156.421H283.387V156.449ZM283.387 65.1246C283.387 60.0904 281.994 57.2813 273.811 57.2813H225.706V80.6166H273.811C282.587 80.6166 283.387 77.5988 283.387 71.5634V65.1246Z" fill="#050707"/>
<path d="M350.059 156.451V23.4896H400.358V156.451H350.059Z" fill="#050707"/>
<path d="M564.799 156.451V96.3045L537.656 156.451H492.753L465.402 96.3045V156.451H419.492V23.4896H475.973L517.095 106.164L558.203 23.4896H611.096V156.451H564.786H564.799Z" fill="#050707"/>
<path d="M630.278 156.451V23.4896H680.577V156.451H630.278Z" fill="#050707"/>
<path d="M699.711 156.451V23.4896H750.41V122.658H818.676V156.451H699.725H699.711Z" fill="#050707"/>
<path d="M820 0H0V8.52478H820V0Z" fill="#050707"/>
<path d="M820 168.618H0V177.143H820V168.618Z" fill="#050707"/>
<path d="M533.516 190.702H283.292V260.555H533.516V190.702Z" fill="#EC1C25"/>
<path d="M311.512 254.617V201.048H340.739C346.135 201.048 350.233 202.328 353.034 204.873C355.836 207.418 357.243 211.089 357.243 215.859C357.243 218.626 356.733 220.963 355.712 222.84C354.69 224.731 353.352 226.219 351.71 227.332C353.959 228.222 355.767 229.515 357.119 231.198C358.471 232.895 359.134 235.398 359.134 238.721C359.134 243.77 357.588 247.677 354.511 250.445C351.434 253.226 347.059 254.603 341.388 254.603H311.512V254.617ZM326.457 222.423H336.53C340.325 222.423 342.23 220.698 342.23 217.264C342.23 215.539 341.774 214.246 340.863 213.356C339.953 212.466 338.38 212.021 336.116 212.021H326.457V222.423ZM326.457 243.714H337.193C339.29 243.714 340.822 243.269 341.816 242.379C342.809 241.489 343.306 240.029 343.306 237.97C343.306 236.246 342.809 234.953 341.816 234.063C340.822 233.173 339.166 232.728 336.862 232.728H326.457V243.714Z" fill="white"/>
<path d="M369.045 254.617V201.048H409.325V213.022H384.556V221.755H406.262V233.896H384.556V242.629H409.325V254.603H369.045V254.617Z" fill="white"/>
<path d="M418.417 254.617V201.048H458.698V213.022H433.928V221.755H455.634V233.896H433.928V242.629H458.698V254.603H418.417V254.617Z" fill="white"/>
<path d="M467.785 254.617V201.048H507.734V212.702H483.295V221.936H504.588V233.743H483.295V254.617H467.771H467.785Z" fill="white"/>
</svg>
